<svg xmlns="http://www.w3.org/2000/svg" viewBox="0 0 600 380" width="100%" height="100%">
  <defs>
    <linearGradient id="cardGrad" x1="0%" y1="0%" x2="100%" y2="100%">
      <stop offset="0%" stop-color="#1e1b4b" />
      <stop offset="100%" stop-color="#3b82f6" />
    </linearGradient>
  </defs>
  <rect width="600" height="380" fill="url(#cardGrad)" />
  <!-- Pattern grid -->
  <g opacity="0.08" stroke="#ffffff" stroke-width="1">
    <line x1="0" y1="60" x2="600" y2="60" />
    <line x1="0" y1="120" x2="600" y2="120" />
    <line x1="0" y1="180" x2="600" y2="180" />
    <line x1="0" y1="240" x2="600" y2="240" />
    <line x1="0" y1="300" x2="600" y2="300" />
    <line x1="100" y1="0" x2="100" y2="380" />
    <line x1="200" y1="0" x2="200" y2="380" />
    <line x1="300" y1="0" x2="300" y2="380" />
    <line x1="400" y1="0" x2="400" y2="380" />
    <line x1="500" y1="0" x2="500" y2="380" />
  </g>
  <!-- Decorative Orb -->
  <circle cx="520" cy="80" r="140" fill="#ffffff" opacity="0.05" />
  <circle cx="80" cy="300" r="100" fill="#ffffff" opacity="0.04" />
  
  <!-- Central Graphic Container -->
  <g transform="translate(250, 100) scale(1.4)">
    <circle cx="50" cy="50" r="45" fill="#000000" opacity="0.18" />
    <rect x="25" y="25" width="50" height="35" rx="3" fill="#ffffff" opacity="0.9"/><line x1="25" y1="52" x2="75" y2="52" stroke="#94a3b8" stroke-width="1"/><polygon points="45,60 55,60 58,72 42,72" fill="#cbd5e1"/><line x1="35" y1="72" x2="65" y2="72" stroke="#cbd5e1" stroke-width="3"/>
  </g>
  
  <!-- Info Overlay -->
  <rect x="30" y="270" width="540" height="85" rx="10" fill="#0f172a" opacity="0.82" />
  <text x="50" y="304" font-family="'Plus Jakarta Sans', sans-serif" font-size="17" font-weight="700" fill="#ffffff">Smart Library &amp; Multimedia</text>
  <text x="50" y="332" font-family="'Plus Jakarta Sans', sans-serif" font-size="12" font-weight="500" fill="#93c5fd">Modernisasi Pembelajaran Digital • SMA Negeri 1 Harapan Bangsa</text>
</svg>